<?xml version="1.0" encoding="UTF-8" standalone="no"?>
<!-- Generator: Adobe Illustrator 16.2.0, SVG Export Plug-In . SVG Version: 6.00 Build 0)  -->

<svg
   xmlns:dc="http://purl.org/dc/elements/1.1/"
   xmlns:cc="http://creativecommons.org/ns#"
   xmlns:rdf="http://www.w3.org/1999/02/22-rdf-syntax-ns#"
   xmlns:svg="http://www.w3.org/2000/svg"
   xmlns="http://www.w3.org/2000/svg"
   xmlns:xlink="http://www.w3.org/1999/xlink"
   xmlns:sodipodi="http://sodipodi.sourceforge.net/DTD/sodipodi-0.dtd"
   xmlns:inkscape="http://www.inkscape.org/namespaces/inkscape"
   version="1.1"
   id="svg2"
   sodipodi:docname="omn_ic.svg"
   inkscape:export-ydpi="80"
   inkscape:export-filename="/home/mvb/tmp/git/lab/Android/My_icons/MVB_logo/mvb_logo_512.png"
   inkscape:export-xdpi="80"
   inkscape:version="0.92.5 (2060ec1f9f, 2020-04-08)"
   x="0px"
   y="0px"
   width="576px"
   height="576px"
   viewBox="0 0 576 576"
   enable-background="new 0 0 576 576"
   xml:space="preserve"><metadata
     id="metadata4246"><rdf:RDF><cc:Work
         rdf:about=""><dc:format>image/svg+xml</dc:format><dc:type
           rdf:resource="http://purl.org/dc/dcmitype/StillImage" /><dc:title></dc:title><dc:description>F is Dyuthi font 144 size (106x167 resized), 0,203,255,255 color</dc:description></cc:Work></rdf:RDF></metadata><defs
     id="defs4244" /><sodipodi:namedview
     id="base"
     inkscape:cx="8.90725"
     inkscape:cy="342.8123"
     showguides="true"
     showgrid="false"
     pagecolor="#ffffff"
     borderopacity="1.0"
     bordercolor="#666666"
     inkscape:zoom="1"
     inkscape:window-x="0"
     inkscape:document-units="px"
     inkscape:pageshadow="2"
     inkscape:guide-bbox="true"
     inkscape:current-layer="layer1"
     inkscape:window-maximized="1"
     inkscape:pageopacity="0.0"
     inkscape:window-height="1007"
     inkscape:window-width="1920"
     inkscape:window-y="0"><sodipodi:guide
       orientation="1,0"
       position="552,574.7768"
       id="guide2985"
       inkscape:locked="false" /><sodipodi:guide
       orientation="1,0"
       position="24,307.08637"
       id="guide2987"
       inkscape:locked="false" /><sodipodi:guide
       orientation="0,1"
       position="16.162441,24"
       id="guide2989"
       inkscape:locked="false" /><sodipodi:guide
       orientation="0,1"
       position="78.791899,552"
       id="guide2991"
       inkscape:locked="false" /><sodipodi:guide
       orientation="0,1"
       position="243.24473,284.25692"
       id="guide3793"
       inkscape:locked="false" /><sodipodi:guide
       orientation="1,0"
       position="288,301.93459"
       id="guide3795"
       inkscape:locked="false" /></sodipodi:namedview><g
     inkscape:groupmode="layer"
     id="layer3"
     inkscape:label="NB"
     style="display:inline"><g
       id="g4249"
       transform="matrix(0.92425927,0,0,0.92425927,20.292587,17.819338)"><g
         id="g4174"><defs
           id="defs4176"><rect
             height="518.37201"
             width="569.04901"
             y="34.127998"
             x="3.5"
             id="SVGID_1_" /></defs><clipPath
           id="SVGID_2_"><use
             id="use4180"
             overflow="visible"
             xlink:href="#SVGID_1_"
             style="overflow:visible"
             x="0"
             y="0"
             width="100%"
             height="100%" /></clipPath><path
           id="path4182"
           d="M 493.534,522.331 V 94.215 c 0,0 0,-29.307 -29.308,-29.307 h -19.1 v 13.391 c 5.213,1.394 9.067,6.102 9.067,11.751 0,6.745 -5.467,12.211 -12.212,12.211 -6.744,0 -12.21,-5.466 -12.21,-12.211 0,-5.65 3.857,-10.357 9.065,-11.751 V 64.907 H 396.28 v 13.391 c 5.209,1.394 9.066,6.102 9.066,11.751 0,6.745 -5.466,12.211 -12.21,12.211 -6.745,0 -12.214,-5.466 -12.214,-12.211 0,-5.65 3.856,-10.357 9.068,-11.751 V 64.907 h -42.557 v 13.391 c 5.212,1.394 9.067,6.102 9.067,11.751 0,6.745 -5.468,12.211 -12.213,12.211 -6.74,0 -12.21,-5.466 -12.21,-12.211 0,-5.65 3.857,-10.357 9.066,-11.751 V 64.907 h -42.556 v 13.391 c 5.208,1.394 9.067,6.102 9.067,11.751 0,6.745 -5.468,12.211 -12.212,12.211 -6.745,0 -12.212,-5.466 -12.212,-12.211 0,-5.65 3.856,-10.357 9.066,-11.751 V 64.907 h -42.554 v 13.391 c 5.209,1.394 9.066,6.102 9.066,11.751 0,6.745 -5.468,12.211 -12.212,12.211 -6.743,0 -12.211,-5.466 -12.211,-12.211 0,-5.65 3.856,-10.357 9.067,-11.751 V 64.907 h -42.557 v 13.391 c 5.211,1.394 9.068,6.102 9.068,11.751 0,6.745 -5.468,12.211 -12.212,12.211 -6.744,0 -12.212,-5.466 -12.212,-12.211 0,-5.65 3.856,-10.357 9.066,-11.751 V 64.907 h -42.554 v 13.391 c 5.209,1.394 9.065,6.102 9.065,11.751 0,6.745 -5.467,12.211 -12.21,12.211 -6.744,0 -12.211,-5.466 -12.211,-12.211 0,-5.65 3.856,-10.357 9.067,-11.751 V 64.907 H 103.21 v 13.391 c 5.21,1.394 9.067,6.102 9.067,11.751 0,6.745 -5.468,12.211 -12.212,12.211 -6.745,0 -12.212,-5.466 -12.212,-12.211 0,-5.65 3.857,-10.357 9.068,-11.751 V 64.907 H 54.365 v 13.391 c 5.209,1.394 9.066,6.102 9.066,11.751 0,6.745 -5.467,12.211 -12.21,12.211 -6.745,0 -12.212,-5.466 -12.212,-12.211 0,-5.65 3.856,-10.357 9.067,-11.751 V 64.907 H 36.11 c 0,0 -29.305,0 -29.305,29.307 v 428.117 c 0,0 0,29.307 29.305,29.307 h 428.116 c 10e-4,0 29.308,0 29.308,-29.307"
           clip-path="url(#SVGID_2_)"
           inkscape:connector-curvature="0"
           style="fill:#1e1e1c" /><path
           id="path4184"
           d="M 493.534,522.331 V 94.215 c 0,0 0,-29.307 -29.308,-29.307 h -19.1 v 13.391 c 5.213,1.394 9.067,6.102 9.067,11.751 0,6.745 -5.467,12.211 -12.212,12.211 -6.744,0 -12.21,-5.466 -12.21,-12.211 0,-5.65 3.857,-10.357 9.065,-11.751 V 64.907 H 396.28 v 13.391 c 5.209,1.394 9.066,6.102 9.066,11.751 0,6.745 -5.466,12.211 -12.21,12.211 -6.745,0 -12.214,-5.466 -12.214,-12.211 0,-5.65 3.856,-10.357 9.068,-11.751 V 64.907 h -42.557 v 13.391 c 5.212,1.394 9.067,6.102 9.067,11.751 0,6.745 -5.468,12.211 -12.213,12.211 -6.74,0 -12.21,-5.466 -12.21,-12.211 0,-5.65 3.857,-10.357 9.066,-11.751 V 64.907 h -42.556 v 13.391 c 5.208,1.394 9.067,6.102 9.067,11.751 0,6.745 -5.468,12.211 -12.212,12.211 -6.745,0 -12.212,-5.466 -12.212,-12.211 0,-5.65 3.856,-10.357 9.066,-11.751 V 64.907 h -42.554 v 13.391 c 5.209,1.394 9.066,6.102 9.066,11.751 0,6.745 -5.468,12.211 -12.212,12.211 -6.743,0 -12.211,-5.466 -12.211,-12.211 0,-5.65 3.856,-10.357 9.067,-11.751 V 64.907 h -42.557 v 13.391 c 5.211,1.394 9.068,6.102 9.068,11.751 0,6.745 -5.468,12.211 -12.212,12.211 -6.744,0 -12.212,-5.466 -12.212,-12.211 0,-5.65 3.856,-10.357 9.066,-11.751 V 64.907 h -42.554 v 13.391 c 5.209,1.394 9.065,6.102 9.065,11.751 0,6.745 -5.467,12.211 -12.21,12.211 -6.744,0 -12.211,-5.466 -12.211,-12.211 0,-5.65 3.856,-10.357 9.067,-11.751 V 64.907 H 103.21 v 13.391 c 5.21,1.394 9.067,6.102 9.067,11.751 0,6.745 -5.468,12.211 -12.212,12.211 -6.745,0 -12.212,-5.466 -12.212,-12.211 0,-5.65 3.857,-10.357 9.068,-11.751 V 64.907 H 54.365 v 13.391 c 5.209,1.394 9.066,6.102 9.066,11.751 0,6.745 -5.467,12.211 -12.21,12.211 -6.745,0 -12.212,-5.466 -12.212,-12.211 0,-5.65 3.856,-10.357 9.067,-11.751 V 64.907 H 36.11 c 0,0 -29.305,0 -29.305,29.307 v 428.117 c 0,0 0,29.307 29.305,29.307 h 428.116 c 10e-4,0 29.308,0 29.308,-29.307 z"
           clip-path="url(#SVGID_2_)"
           inkscape:connector-curvature="0"
           style="fill:none;stroke:#1e1e1c" /><path
           id="path4186"
           d="M 491.092,519.767 V 91.651 c 0,0 0,-29.308 -29.307,-29.308 h -19.1 v 13.391 c 5.211,1.395 9.067,6.102 9.067,11.752 0,6.745 -5.469,12.21 -12.214,12.21 -6.744,0 -12.21,-5.465 -12.21,-12.21 0,-5.65 3.857,-10.358 9.067,-11.752 V 62.343 H 393.84 v 13.391 c 5.208,1.395 9.065,6.102 9.065,11.752 0,6.745 -5.466,12.21 -12.21,12.21 -6.745,0 -12.212,-5.465 -12.212,-12.21 0,-5.65 3.856,-10.358 9.068,-11.752 V 62.343 h -42.558 v 13.391 c 5.211,1.395 9.067,6.102 9.067,11.752 0,6.745 -5.468,12.21 -12.212,12.21 -6.743,0 -12.211,-5.465 -12.211,-12.21 0,-5.65 3.855,-10.358 9.066,-11.752 V 62.343 h -42.554 v 13.391 c 5.207,1.395 9.065,6.102 9.065,11.752 0,6.745 -5.469,12.21 -12.212,12.21 -6.744,0 -12.212,-5.465 -12.212,-12.21 0,-5.65 3.857,-10.358 9.067,-11.752 V 62.343 h -42.555 v 13.391 c 5.209,1.395 9.065,6.102 9.065,11.752 0,6.745 -5.467,12.21 -12.209,12.21 -6.744,0 -12.212,-5.465 -12.212,-12.21 0,-5.65 3.856,-10.358 9.067,-11.752 V 62.343 h -42.557 v 13.391 c 5.211,1.395 9.066,6.102 9.066,11.752 0,6.745 -5.467,12.21 -12.211,12.21 -6.744,0 -12.212,-5.465 -12.212,-12.21 0,-5.65 3.856,-10.358 9.068,-11.752 V 62.343 h -42.556 v 13.391 c 5.209,1.395 9.065,6.102 9.065,11.752 0,6.745 -5.468,12.21 -12.21,12.21 -6.745,0 -12.213,-5.465 -12.213,-12.21 0,-5.65 3.857,-10.358 9.068,-11.752 V 62.343 h -42.558 v 13.391 c 5.211,1.395 9.068,6.102 9.068,11.752 0,6.745 -5.467,12.21 -12.212,12.21 -6.745,0 -12.212,-5.465 -12.212,-12.21 0,-5.65 3.856,-10.358 9.067,-11.752 V 62.343 H 51.923 v 13.391 c 5.209,1.395 9.065,6.102 9.065,11.752 0,6.745 -5.467,12.21 -12.21,12.21 -6.744,0 -12.212,-5.465 -12.212,-12.21 0,-5.65 3.857,-10.358 9.067,-11.752 V 62.343 H 33.668 c 0,0 -29.305,0 -29.305,29.308 v 428.116 c 0,0 0,29.308 29.305,29.308 h 428.117 c 0,-0.001 29.307,-0.001 29.307,-29.308"
           clip-path="url(#SVGID_2_)"
           inkscape:connector-curvature="0"
           style="fill:#fff49d" /><path
           id="path4188"
           d="M 491.092,519.767 V 91.651 c 0,0 0,-29.308 -29.307,-29.308 h -19.1 v 13.391 c 5.211,1.395 9.067,6.102 9.067,11.752 0,6.745 -5.469,12.21 -12.214,12.21 -6.744,0 -12.21,-5.465 -12.21,-12.21 0,-5.65 3.857,-10.358 9.067,-11.752 V 62.343 H 393.84 v 13.391 c 5.208,1.395 9.065,6.102 9.065,11.752 0,6.745 -5.466,12.21 -12.21,12.21 -6.745,0 -12.212,-5.465 -12.212,-12.21 0,-5.65 3.856,-10.358 9.068,-11.752 V 62.343 h -42.558 v 13.391 c 5.211,1.395 9.067,6.102 9.067,11.752 0,6.745 -5.468,12.21 -12.212,12.21 -6.743,0 -12.211,-5.465 -12.211,-12.21 0,-5.65 3.855,-10.358 9.066,-11.752 V 62.343 h -42.554 v 13.391 c 5.207,1.395 9.065,6.102 9.065,11.752 0,6.745 -5.469,12.21 -12.212,12.21 -6.744,0 -12.212,-5.465 -12.212,-12.21 0,-5.65 3.857,-10.358 9.067,-11.752 V 62.343 h -42.555 v 13.391 c 5.209,1.395 9.065,6.102 9.065,11.752 0,6.745 -5.467,12.21 -12.209,12.21 -6.744,0 -12.212,-5.465 -12.212,-12.21 0,-5.65 3.856,-10.358 9.067,-11.752 V 62.343 h -42.557 v 13.391 c 5.211,1.395 9.066,6.102 9.066,11.752 0,6.745 -5.467,12.21 -12.211,12.21 -6.744,0 -12.212,-5.465 -12.212,-12.21 0,-5.65 3.856,-10.358 9.068,-11.752 V 62.343 h -42.556 v 13.391 c 5.209,1.395 9.065,6.102 9.065,11.752 0,6.745 -5.468,12.21 -12.21,12.21 -6.745,0 -12.213,-5.465 -12.213,-12.21 0,-5.65 3.857,-10.358 9.068,-11.752 V 62.343 h -42.558 v 13.391 c 5.211,1.395 9.068,6.102 9.068,11.752 0,6.745 -5.467,12.21 -12.212,12.21 -6.745,0 -12.212,-5.465 -12.212,-12.21 0,-5.65 3.856,-10.358 9.067,-11.752 V 62.343 H 51.923 v 13.391 c 5.209,1.395 9.065,6.102 9.065,11.752 0,6.745 -5.467,12.21 -12.21,12.21 -6.744,0 -12.212,-5.465 -12.212,-12.21 0,-5.65 3.857,-10.358 9.067,-11.752 V 62.343 H 33.668 c 0,0 -29.305,0 -29.305,29.308 v 428.116 c 0,0 0,29.308 29.305,29.308 h 428.117 c 0,-0.001 29.307,-0.001 29.307,-29.308 z"
           clip-path="url(#SVGID_2_)"
           inkscape:connector-curvature="0"
           style="fill:none;stroke:#1e1e1c" /></g><polygon
         id="polygon4190"
         points="182.634,520.327 182.634,520.329 279.219,487.008 279.219,487.007 375.739,453.708 374.867,452.424 489.999,374.768 489.999,251.246 317.28,367.745 316.409,366.463 "
         style="fill:#ada870" /><path
         id="path4192"
         d="m 292.185,266.823 -21.409,97.309 h -81.09 l 22.057,-97.309 z m 123.907,-41.518 h -68.766 l 21.407,-96.66 h -45.41 l -22.058,96.66 h -80.441 l 21.407,-96.66 h -46.059 l -22.058,96.66 h -68.765 l -9.083,41.518 h 68.767 l -21.409,97.309 H 74.86 l -9.082,40.87 h 68.764 l -21.407,97.309 h 46.059 l 21.408,-97.309 h 81.092 l -21.408,97.309 h 45.41 l 21.409,-97.309 h 69.414 l 9.082,-40.87 h -69.414 l 22.056,-97.309 h 68.765 z"
         inkscape:connector-curvature="0"
         style="fill:#1e1e1c" /><line
         id="line4194"
         y2="215.25"
         x2="459.07901"
         y1="215.25"
         x1="40.229"
         style="fill:none;stroke:#1e1e1c" /><line
         id="line4196"
         y2="288.78101"
         x2="459.07901"
         y1="288.78101"
         x1="40.229"
         style="fill:none;stroke:#1e1e1c" /><line
         id="line4198"
         y2="362.314"
         x2="459.07901"
         y1="362.314"
         x1="40.229"
         style="fill:none;stroke:#1e1e1c" /><line
         id="line4200"
         y2="435.84399"
         x2="459.07901"
         y1="435.84399"
         x1="40.229"
         style="fill:none;stroke:#1e1e1c" /><line
         id="line4202"
         y2="509.375"
         x2="459.07901"
         y1="509.375"
         x1="40.229"
         style="fill:none;stroke:#1e1e1c" /><line
         id="line4204"
         y2="141.718"
         x2="459.07901"
         y1="141.718"
         x1="40.229"
         style="fill:none;stroke:#1e1e1c" /><polygon
         id="polygon4206"
         points="351.563,389.625 267.616,325.713 189.576,514.073 "
         style="fill:#ffffff" /><polygon
         id="polygon4208"
         points="351.563,389.625 267.616,325.713 189.576,514.073 "
         style="fill:none;stroke:#1e1e1c;stroke-width:1.79999995" /><g
         id="g4210"><defs
           id="defs4212"><rect
             height="518.37201"
             width="569.04901"
             y="34.127998"
             x="3.5"
             id="SVGID_3_" /></defs><clipPath
           id="SVGID_4_"><use
             id="use4216"
             overflow="visible"
             xlink:href="#SVGID_3_"
             style="overflow:visible"
             x="0"
             y="0"
             width="100%"
             height="100%" /></clipPath><path
           id="path4218"
           d="m 437.585,106.752 c 0,0 -16.055,20.926 4.87,36.982 l 39.39,30.226 c 0,0 20.927,16.058 36.984,-4.868 l 46.282,-60.317 c 0,0 16.057,-20.926 -4.87,-36.982 l -39.39,-30.226 c 0,0 -20.924,-16.058 -36.984,4.867 z"
           clip-path="url(#SVGID_4_)"
           inkscape:connector-curvature="0"
           style="fill:#dc9bc0" /><path
           id="path4220"
           d="m 437.585,106.752 c 0,0 -16.055,20.926 4.87,36.982 l 39.39,30.226 c 0,0 20.927,16.058 36.984,-4.868 l 46.282,-60.317 c 0,0 16.057,-20.926 -4.87,-36.982 l -39.39,-30.226 c 0,0 -20.924,-16.058 -36.984,4.867 z"
           clip-path="url(#SVGID_4_)"
           inkscape:connector-curvature="0"
           style="fill:none;stroke:#1e1e1c;stroke-width:1.79999995" /></g><rect
         id="rect4222"
         height="330.121"
         width="102.405"
         transform="matrix(-0.7934,-0.6088,0.6088,-0.7934,596.0563,657.1101)"
         y="62.328999"
         x="358.353"
         style="fill:#526e7f" /><rect
         id="rect4224"
         height="330.121"
         width="102.405"
         transform="matrix(-0.7934,-0.6088,0.6088,-0.7934,596.0563,657.1101)"
         y="62.328999"
         x="358.353"
         style="fill:none;stroke:#1e1e1c;stroke-width:1.79999995" /><rect
         id="rect4226"
         height="328.104"
         width="73.509003"
         transform="matrix(-0.7934,-0.6088,0.6088,-0.7934,595.3044,652.5502)"
         y="61.185001"
         x="371.65201"
         style="fill:#83afcd" /><rect
         id="rect4228"
         height="328.103"
         width="28.917999"
         transform="rotate(-142.50442,397.43068,216.81992)"
         y="52.765999"
         x="382.97501"
         style="fill:#c1d6e7" /><polygon
         id="polygon4230"
         points="270.595,451.829 228.687,419.673 189.575,514.076 "
         style="fill:#626261" /><polygon
         id="polygon4232"
         points="270.595,451.829 228.687,419.673 189.575,514.076 "
         style="fill:none;stroke:#1e1e1c;stroke-width:1.79999995" /><polygon
         id="polygon4234"
         points="245.896,423.55 240.4,418.665 195.219,506.585 "
         style="fill:#ffffff" /><rect
         id="rect4236"
         height="78.666"
         width="118.23"
         transform="matrix(-0.7933,-0.6088,0.6088,-0.7933,795.4185,526.9041)"
         y="89.112999"
         x="428.02499"
         style="fill:#848484" /><rect
         id="rect4238"
         height="78.666"
         width="118.23"
         transform="matrix(-0.7933,-0.6088,0.6088,-0.7933,795.4185,526.9041)"
         y="89.112999"
         x="428.02499"
         style="fill:none;stroke:#1e1e1c;stroke-width:1.79999995" /><rect
         id="rect4240"
         height="73.317001"
         width="81.677002"
         transform="matrix(-0.7934,-0.6088,0.6088,-0.7934,784.8708,509.7602)"
         y="85.009003"
         x="438.116"
         style="fill:#c4c4c4" /><rect
         id="rect4242"
         height="73.319"
         width="31.746"
         transform="matrix(-0.7933,-0.6088,0.6088,-0.7933,767.1718,483.3372)"
         y="74.783997"
         x="449.758"
         style="fill:#ffffff" /></g></g><g
     inkscape:groupmode="layer"
     id="layer4"
     inkscape:label="Alpha"
     style="display:none"><text
   xml:space="preserve"
   style="font-style:normal;font-weight:normal;line-height:0%;font-family:sans-serif;letter-spacing:0px;word-spacing:0px;fill:#ff0100;fill-opacity:1;stroke:none;stroke-width:1px;stroke-linecap:butt;stroke-linejoin:miter;stroke-opacity:1"
   x="343.23285"
   y="552.18713"
   id="text4164"
   transform="scale(1.0135171,0.98666318)"><tspan
     sodipodi:role="line"
     id="tspan4166"
     x="343.23285"
     y="552.18713"
     style="font-size:319.33584595px;line-height:1.25">α</tspan></text>



</g><g
     inkscape:groupmode="layer"
     id="layer1"
     inkscape:label="F-Droid"
     style="display:none">
<flowRoot
   xml:space="preserve"
   id="flowRoot4128"
   style="font-style:normal;font-weight:normal;font-size:40px;line-height:125%;font-family:sans-serif;letter-spacing:0px;word-spacing:0px;fill:#000000;fill-opacity:1;stroke:none;stroke-width:1px;stroke-linecap:butt;stroke-linejoin:miter;stroke-opacity:1"><flowRegion
     id="flowRegion4130"><rect
       id="rect4132"
       width="60"
       height="40"
       x="552"
       y="336" /></flowRegion><flowPara
     id="flowPara4134" /></flowRoot><g
   aria-label="F"
   transform="matrix(0.99995895,0,0,1.000041,40,196)"
   style="font-style:normal;font-variant:normal;font-weight:normal;font-stretch:normal;font-size:270.35726929px;line-height:125%;font-family:Dyuthi;-inkscape-font-specification:'Dyuthi, Normal';font-variant-ligatures:normal;font-variant-caps:normal;font-variant-numeric:normal;font-feature-settings:normal;text-align:start;letter-spacing:0px;word-spacing:0px;writing-mode:lr-tb;text-anchor:start;fill:#00cbff;fill-opacity:1;stroke:none;stroke-width:1.40811086px;stroke-linecap:butt;stroke-linejoin:miter;stroke-opacity:1"
   id="text1721"><path
     d="m 392.54808,219.34349 v 53.99224 q 0,8.18465 -5.67644,13.9931 -5.67645,5.80846 -13.9931,5.80846 h -0.26402 q -8.05264,0 -13.72908,-5.80846 -5.80846,-5.80845 -5.80846,-13.9931 V 150.69808 q 0,-10.03278 7.26057,-17.29336 7.26057,-7.26057 17.29336,-7.26057 h 66.00519 q 7.26057,0 11.61692,5.54444 2.90423,3.56428 2.90423,9.24073 v 5.67644 q 0,4.09232 -4.88439,7.92063 -4.88438,3.8283 -9.63676,3.56428 l -51.08802,-2.37619 v 38.28301 l 51.61606,-2.37619 q 5.80846,-0.26402 10.29681,4.35635 4.48836,4.62036 4.62037,10.56083 v 0.26402 q 0,6.20449 -4.75238,10.69284 -4.75237,4.48835 -10.1648,4.22433 z"
     style="stroke-width:1.40811086px"
     id="path1723"
     inkscape:connector-curvature="0" /></g></g><g
     inkscape:groupmode="layer"
     id="layer5"
     inkscape:label="Betta"
     style="display:none"><g
       transform="translate(111.15,58.4)"
       class="st5"
       id="g4973"
       style="fill:#00d91b;fill-opacity:1"><path
         inkscape:connector-curvature="0"
         class="st6"
         d="m 340.1,411.2 v 83.4 H 317 V 277.2 c 0,-17.3 2,-30.9 5.9,-40.7 3.9,-9.8 10.6,-17.9 20.2,-24.3 9.5,-6.4 20.1,-9.6 31.8,-9.6 17.3,0 30.3,5.9 39.2,17.8 8.9,11.8 13.3,24.8 13.3,38.8 0,13.7 -3.6,24.8 -10.8,33.2 -7.2,8.4 -15.4,13.6 -24.7,15.5 14.9,1.7 26.5,8.2 34.6,19.2 8.1,11.1 12.2,24.7 12.2,40.9 0,17.4 -4.8,33 -14.4,46.8 -9.6,13.8 -23.4,20.7 -41.5,20.7 -18.5,0.1 -32.7,-8 -42.7,-24.3 z m 20.5,-112.1 c 15.8,0 27.3,-3.3 34.5,-9.8 7.2,-6.6 10.8,-16 10.8,-28.5 0,-10 -3.1,-18.5 -9.2,-25.2 -6.1,-6.8 -13.8,-10.2 -23,-10.2 -8,0 -14.9,2.5 -20.8,7.5 -5.9,5 -9.5,10.6 -10.8,16.8 -1.3,6.2 -2,16.9 -2,32.3 v 62 c 0,17.6 1,30.6 3.1,38.9 2.1,8.3 6.5,15.8 13.3,22.5 6.8,6.7 14.6,10 23.4,10 10.7,0 19.2,-4.4 25.4,-13.2 6.2,-8.8 9.3,-19.6 9.3,-32.5 0,-10.7 -2.3,-20.2 -6.9,-28.7 -4.6,-8.5 -10.3,-14.2 -17,-17.2 -6.7,-3 -15.7,-4.5 -26.9,-4.5 h -3.3 v -20.2 z"
         id="path4975"
         style="fill:#00d91b;fill-opacity:1" /></g></g><g
     inkscape:groupmode="layer"
     id="layer7"
     inkscape:label="Shortcut"
     style="display:none"><g
       transform="matrix(1.0000019,0,0,0.99997525,21.999996,-382.98577)"
       style="display:inline"
       id="g4239"
       inkscape:export-filename="/home/mvb/tmp/omn_u.png"
       inkscape:export-xdpi="80"
       inkscape:export-ydpi="80"><rect
         id="rect102"
         height="155.89999"
         width="155.89999"
         class="st25"
         y="413.10001"
         x="8"
         style="clip-rule:evenodd;fill:#ffffff;fill-rule:evenodd;stroke:#a0a0a0;stroke-width:12;stroke-miterlimit:10" /><path
         inkscape:connector-curvature="0"
         id="path104"
         d="m 84.7,546.1 c 0,0 -22.9,-8.5 8.5,-42.3 l 8.5,-8.5 25.4,27.2 v -78 H 59.4 L 78,468.3 50.9,495.4 c 0,0 -10.5,13 8.5,33.8 15.5,17 25.3,16.9 25.3,16.9 z"
         class="st26"
         style="clip-rule:evenodd;fill:#3760e2;fill-rule:evenodd" /></g></g><g
     id="layer2"
     inkscape:label="new_grid"
     inkscape:groupmode="layer"
     display="none"
     style="display:none"><path
       id="rect3070"
       display="inline"
       d="m 108.468,24.499 h 359.064 c 6.608,0 11.969,5.36 11.969,11.977 v 503.048 c 0,6.615 -5.358,11.979 -11.969,11.979 H 108.468 c -6.61,0 -11.969,-5.362 -11.969,-11.979 V 36.476 c 0,-6.614 5.358,-11.977 11.969,-11.977 z"
       inkscape:connector-curvature="0"
       style="display:inline;fill-opacity:0;stroke:#000000;stroke-width:0.99779999" /><path
       id="rect3840"
       display="inline"
       d="m 36.476,96.499 h 503.047 c 6.613,0 11.978,5.356 11.978,11.969 v 359.063 c 0,6.609 -5.362,11.97 -11.978,11.97 H 36.476 c -6.615,0 -11.977,-5.358 -11.977,-11.97 V 108.468 c 0,-6.61 5.362,-11.969 11.977,-11.969 z"
       inkscape:connector-curvature="0"
       style="display:inline;fill-opacity:0;stroke:#000000;stroke-width:0.99779999" /><path
       id="rect3842"
       inkscape:connector-curvature="0"
       display="inline"
       d="M 72.473,60 C 65.571,60 60,65.572 60,72.473 v 431.055 c 0,6.9 5.571,12.473 12.473,12.473 h 431.055 c 6.899,0 12.473,-5.57 12.473,-12.473 V 72.473 C 516,65.572 510.429,60 503.527,60 Z m 0,0.998 h 431.055 c 6.363,0 11.475,5.106 11.475,11.475 v 431.055 c 0,6.365 -5.109,11.477 -11.475,11.477 H 72.473 c -6.366,0 -11.475,-5.109 -11.475,-11.477 V 72.473 c 0,-6.366 5.109,-11.475 11.475,-11.475 z"
       style="display:inline" /><circle
       id="path3844"
       display="inline"
       stroke-miterlimit="10"
       cx="288"
       cy="288"
       r="263.49799"
       style="display:inline;fill-opacity:0;stroke:#000000;stroke-width:0.3118;stroke-miterlimit:10" /></g></svg>