<?xml version="1.0" encoding="UTF-8" standalone="no"?>
<!-- Generator: Adobe Illustrator 16.2.0, SVG Export Plug-In . SVG Version: 6.00 Build 0)  -->

<svg
   xmlns:dc="http://purl.org/dc/elements/1.1/"
   xmlns:cc="http://creativecommons.org/ns#"
   xmlns:rdf="http://www.w3.org/1999/02/22-rdf-syntax-ns#"
   xmlns:svg="http://www.w3.org/2000/svg"
   xmlns="http://www.w3.org/2000/svg"
   xmlns:xlink="http://www.w3.org/1999/xlink"
   xmlns:sodipodi="http://sodipodi.sourceforge.net/DTD/sodipodi-0.dtd"
   xmlns:inkscape="http://www.inkscape.org/namespaces/inkscape"
   version="1.1"
   id="svg2"
   sodipodi:docname="omn_ic_adaptive.svg"
   inkscape:export-ydpi="80"
   inkscape:export-filename="/home/mvb/tmp/git/lab/Android/My_icons/MVB_logo/mvb_logo_512.png"
   inkscape:export-xdpi="80"
   inkscape:version="0.91 r13725"
   x="0px"
   y="0px"
   width="576px"
   height="576px"
   viewBox="0 0 576 576"
   enable-background="new 0 0 576 576"
   xml:space="preserve"><metadata
     id="metadata4246"><rdf:RDF><cc:Work
         rdf:about=""><dc:format>image/svg+xml</dc:format><dc:type
           rdf:resource="http://purl.org/dc/dcmitype/StillImage" /><dc:title></dc:title></cc:Work></rdf:RDF></metadata><defs
     id="defs4244"><clipPath
       id="SVGID_4_"><use
         id="use4216"
         overflow="visible"
         xlink:href="#SVGID_3_"
         style="overflow:visible"
         x="0"
         y="0"
         width="100%"
         height="100%" /></clipPath><clipPath
       id="clipPath4391"><use
         id="use4393"
         overflow="visible"
         xlink:href="#SVGID_3_"
         style="overflow:visible"
         x="0"
         y="0"
         width="100%"
         height="100%" /></clipPath></defs><sodipodi:namedview
     id="base"
     inkscape:cx="172.92315"
     inkscape:cy="288.79159"
     showguides="true"
     showgrid="false"
     pagecolor="#ffffff"
     borderopacity="1.0"
     bordercolor="#666666"
     inkscape:zoom="1.4142136"
     inkscape:window-x="0"
     inkscape:document-units="px"
     inkscape:pageshadow="2"
     inkscape:guide-bbox="true"
     inkscape:current-layer="layer3"
     inkscape:window-maximized="1"
     inkscape:pageopacity="0.0"
     inkscape:window-height="995"
     inkscape:window-width="1680"
     inkscape:window-y="0"><sodipodi:guide
       orientation="1,0"
       position="552,574.7768"
       id="guide2985" /><sodipodi:guide
       orientation="1,0"
       position="24,307.08637"
       id="guide2987" /><sodipodi:guide
       orientation="0,1"
       position="16.162441,24"
       id="guide2989" /><sodipodi:guide
       orientation="0,1"
       position="78.791899,552"
       id="guide2991" /><sodipodi:guide
       orientation="0,1"
       position="243.24473,284.25692"
       id="guide3793" /><sodipodi:guide
       orientation="1,0"
       position="288,301.93459"
       id="guide3795" /></sodipodi:namedview><g
     inkscape:groupmode="layer"
     id="layer3"
     inkscape:label="BG"
     style="display:inline"><g
       id="g5414"
       transform="translate(0,-0.5)"><rect
         style="fill:#fff49d"
         y="0"
         height="576.5"
         width="576.5"
         x="0"
         id="background" /><path
         style="fill:#1e1e1c"
         inkscape:connector-curvature="0"
         d="m 326.347,242.433 -19.787,89.938 -74.948,0 20.387,-89.938 74.348,0 z m 114.522,-38.373 -63.558,0 19.785,-89.339 -41.971,0 -20.385,89.339 -74.349,0 19.786,-89.339 -42.57,0 -20.388,89.339 -63.557,0 -8.395,38.374 63.558,0 -19.787,89.938 -63.556,0 -8.395,37.775 63.557,0 -19.786,89.938 42.57,0 19.787,-89.938 74.949,0 -19.786,89.938 41.971,0 19.787,-89.938 64.156,0 8.395,-37.775 -64.156,0 20.385,-89.938 63.557,0 8.396,-38.374 0,0 z"
         id="hashtag" /><g
         id="lines"><line
           style="fill:none;stroke:#1e1e1c;stroke-width:1.34669995"
           y2="139.401"
           x2="571.06598"
           y1="139.401"
           x1="7"
           id="line4194" /><line
           style="fill:none;stroke:#1e1e1c;stroke-width:1.34669995"
           y2="238.42599"
           x2="571.06598"
           y1="238.42599"
           x1="7"
           id="line4196" /><line
           style="fill:none;stroke:#1e1e1c;stroke-width:1.34669995"
           y2="337.453"
           x2="571.06598"
           y1="337.453"
           x1="7"
           id="line4198" /><line
           style="fill:none;stroke:#1e1e1c;stroke-width:1.34669995"
           y2="436.47601"
           x2="571.06598"
           y1="436.47601"
           x1="7"
           id="line4200" /><line
           style="fill:none;stroke:#1e1e1c;stroke-width:1.34669995"
           y2="535.5"
           x2="571.06598"
           y1="535.5"
           x1="7"
           id="line4202" /><line
           style="fill:none;stroke:#1e1e1c;stroke-width:1.34669995"
           y2="40.375999"
           x2="571.06598"
           y1="40.375999"
           x1="7"
           id="line4204" /></g></g></g><g
     inkscape:groupmode="layer"
     id="layer1"
     inkscape:label="FG"
     style="display:inline"><polygon
       id="polygon4190-3"
       points="136.5,480.5 136.5,480.5 230.922,456.752 230.922,456.752 330.136,429.934 329.24,428.898 550,326.828 550,227.344 270.045,360.7 269.15,359.667 "
       style="fill:#ada870;fill-opacity:0.4554"
       transform="translate(4.788662,29.46426)" /><g
       id="g5069"><polygon
         transform="matrix(0.92425927,0,0,0.92425927,-31.018223,32.532836)"
         id="polygon4206"
         points="189.576,514.073 351.563,389.625 267.616,325.713 "
         style="fill:#ffffff" /><polygon
         transform="matrix(0.92425927,0,0,0.92425927,-31.018223,32.532836)"
         id="polygon4208"
         points="189.576,514.073 351.563,389.625 267.616,325.713 "
         style="fill:none;stroke:#1e1e1c;stroke-width:1.79999995" /><g
         transform="matrix(0.92425927,0,0,0.92425927,-31.018223,32.532836)"
         id="g4210"><defs
           id="defs4212"><rect
             height="518.37201"
             width="569.04901"
             y="34.127998"
             x="3.5"
             id="SVGID_3_" /></defs><clipPath
           id="clipPath4402"><use
             id="use4404"
             overflow="visible"
             xlink:href="#SVGID_3_"
             style="overflow:visible"
             x="0"
             y="0"
             width="100%"
             height="100%" /></clipPath><path
           id="path4218"
           d="m 437.585,106.752 c 0,0 -16.055,20.926 4.87,36.982 l 39.39,30.226 c 0,0 20.927,16.058 36.984,-4.868 l 46.282,-60.317 c 0,0 16.057,-20.926 -4.87,-36.982 l -39.39,-30.226 c 0,0 -20.924,-16.058 -36.984,4.867 l -46.282,60.318 z"
           clip-path="url(#SVGID_4_)"
           inkscape:connector-curvature="0"
           style="fill:#dc9bc0" /><path
           id="path4220"
           d="m 437.585,106.752 c 0,0 -16.055,20.926 4.87,36.982 l 39.39,30.226 c 0,0 20.927,16.058 36.984,-4.868 l 46.282,-60.317 c 0,0 16.057,-20.926 -4.87,-36.982 l -39.39,-30.226 c 0,0 -20.924,-16.058 -36.984,4.867 l -46.282,60.318 z"
           clip-path="url(#SVGID_4_)"
           inkscape:connector-curvature="0"
           style="fill:none;stroke:#1e1e1c;stroke-width:1.79999995" /></g><rect
         id="rect4222"
         height="305.13586"
         width="94.654495"
         transform="matrix(-0.793352,-0.60876317,0.60876317,-0.793352,0,0)"
         y="-133.54153"
         x="-470.75757"
         style="fill:#526e7f" /><rect
         id="rect4224"
         height="305.13586"
         width="94.654495"
         transform="matrix(-0.793352,-0.60876317,0.60876317,-0.793352,0,0)"
         y="-133.54153"
         x="-470.75757"
         style="fill:none;stroke:#1e1e1c;stroke-width:1.66376734" /><rect
         id="rect4226"
         height="303.27151"
         width="67.945488"
         transform="matrix(-0.793352,-0.60876317,0.60876317,-0.793352,0,0)"
         y="-131.67839"
         x="-455.34811"
         style="fill:#83afcd" /><rect
         id="rect4228"
         height="303.25214"
         width="26.727718"
         transform="matrix(-0.79340029,-0.60870023,0.60870023,-0.79340029,0,0)"
         y="-131.72311"
         x="-421.97479"
         style="fill:#c1d6e7" /><polygon
         transform="matrix(0.92425927,0,0,0.92425927,-31.018223,32.532836)"
         id="polygon4230"
         points="189.575,514.076 270.595,451.829 228.687,419.673 "
         style="fill:#626261" /><polygon
         transform="matrix(0.92425927,0,0,0.92425927,-31.018223,32.532836)"
         id="polygon4232"
         points="189.575,514.076 270.595,451.829 228.687,419.673 "
         style="fill:none;stroke:#1e1e1c;stroke-width:1.79999995" /><polygon
         transform="matrix(0.92425927,0,0,0.92425927,-31.018223,32.532836)"
         id="polygon4234"
         points="195.219,506.585 245.896,423.55 240.4,418.665 "
         style="fill:#ffffff" /><rect
         id="rect4236"
         height="72.706413"
         width="109.27312"
         transform="matrix(-0.79331494,-0.60881146,0.60881146,-0.79331494,0,0)"
         y="98.909431"
         x="-479.31293"
         style="fill:#848484" /><rect
         id="rect4238"
         height="72.706413"
         width="109.27312"
         transform="matrix(-0.79331494,-0.60881146,0.60881146,-0.79331494,0,0)"
         y="98.909431"
         x="-479.31293"
         style="fill:none;stroke:#1e1e1c;stroke-width:1.66363525" /><rect
         id="rect4240"
         height="67.768021"
         width="75.495293"
         transform="matrix(-0.793352,-0.60876317,0.60876317,-0.793352,0,0)"
         y="101.70558"
         x="-452.57495"
         style="fill:#c4c4c4" /><rect
         id="rect4242"
         height="67.764488"
         width="29.340982"
         transform="matrix(-0.79331494,-0.60881146,0.60881146,-0.79331494,0,0)"
         y="101.71606"
         x="-414"
         style="fill:#ffffff" /></g></g><g
     inkscape:groupmode="layer"
     id="layer4"
     inkscape:label="Alpha"
     style="display:none"><g
       transform="scale(1.0135171,0.98666318)"
       style="font-style:normal;font-weight:normal;font-size:319.33584595px;line-height:125%;font-family:sans-serif;letter-spacing:0px;word-spacing:0px;fill:#ff0100;fill-opacity:1;stroke:none;stroke-width:1px;stroke-linecap:butt;stroke-linejoin:miter;stroke-opacity:1"
       id="text4164"><path
         d="m 436.83191,431.53328 -6.86073,-36.01884 q -7.01666,-36.95439 -34.77143,-36.95439 -20.89405,0 -30.40552,17.15182 -12.00628,21.51775 -12.00628,49.89623 0,34.30365 11.69443,50.67585 11.85036,16.68405 30.71737,16.68405 20.89404,0 32.12069,-33.21217 l 9.51147,-28.22255 z m 16.06035,-47.71327 15.43664,-45.68623 25.57182,0 -31.96477,94.6469 6.23703,34.14773 q 1.40333,7.64036 6.86073,14.03331 6.39295,7.48444 11.38257,7.48444 l 13.72147,0 0,24.32441 -17.15183,0 q -14.65702,0 -27.75478,-13.09776 -6.39295,-6.54888 -9.04369,-20.27034 -7.17258,17.30775 -21.8296,30.87329 -6.86073,6.39295 -29.1581,6.39295 -36.64254,0 -54.41808,-23.70071 -18.2433,-24.48033 -18.2433,-67.3599 0,-45.84216 19.80256,-67.35991 21.98553,-24.01255 52.85882,-24.01255 48.49289,0 57.69251,49.58437 z"
         id="path4200"
         inkscape:connector-curvature="0" /></g></g><g
     inkscape:groupmode="layer"
     id="layer5"
     inkscape:label="Betta"
     style="display:none"><g
       transform="translate(63.15,58.4)"
       class="st5"
       id="g4973"
       style="fill:#00d91b;fill-opacity:1"><path
         inkscape:connector-curvature="0"
         class="st6"
         d="m 340.1,411.2 0,83.4 -23.1,0 0,-217.4 c 0,-17.3 2,-30.9 5.9,-40.7 3.9,-9.8 10.6,-17.9 20.2,-24.3 9.5,-6.4 20.1,-9.6 31.8,-9.6 17.3,0 30.3,5.9 39.2,17.8 8.9,11.8 13.3,24.8 13.3,38.8 0,13.7 -3.6,24.8 -10.8,33.2 -7.2,8.4 -15.4,13.6 -24.7,15.5 14.9,1.7 26.5,8.2 34.6,19.2 8.1,11.1 12.2,24.7 12.2,40.9 0,17.4 -4.8,33 -14.4,46.8 -9.6,13.8 -23.4,20.7 -41.5,20.7 -18.5,0.1 -32.7,-8 -42.7,-24.3 z m 20.5,-112.1 c 15.8,0 27.3,-3.3 34.5,-9.8 7.2,-6.6 10.8,-16 10.8,-28.5 0,-10 -3.1,-18.5 -9.2,-25.2 -6.1,-6.8 -13.8,-10.2 -23,-10.2 -8,0 -14.9,2.5 -20.8,7.5 -5.9,5 -9.5,10.6 -10.8,16.8 -1.3,6.2 -2,16.9 -2,32.3 l 0,62 c 0,17.6 1,30.6 3.1,38.9 2.1,8.3 6.5,15.8 13.3,22.5 6.8,6.7 14.6,10 23.4,10 10.7,0 19.2,-4.4 25.4,-13.2 6.2,-8.8 9.3,-19.6 9.3,-32.5 0,-10.7 -2.3,-20.2 -6.9,-28.7 -4.6,-8.5 -10.3,-14.2 -17,-17.2 -6.7,-3 -15.7,-4.5 -26.9,-4.5 l -3.3,0 0,-20.2 0.1,0 z"
         id="path4975"
         style="fill:#00d91b;fill-opacity:1" /></g></g><g
     inkscape:groupmode="layer"
     id="layer7"
     inkscape:label="Shortcut"
     style="display:none"><g
       transform="matrix(1.0000019,0,0,0.99997525,71.999996,-334.98577)"
       style="display:inline"
       id="g4239"
       inkscape:export-filename="/home/mvb/tmp/omn_u.png"
       inkscape:export-xdpi="80"
       inkscape:export-ydpi="80"><rect
         id="rect102"
         height="155.89999"
         width="155.89999"
         class="st25"
         y="413.10001"
         x="8"
         style="clip-rule:evenodd;fill:#ffffff;fill-rule:evenodd;stroke:#a0a0a0;stroke-width:12;stroke-miterlimit:10" /><path
         inkscape:connector-curvature="0"
         id="path104"
         d="m 84.7,546.1 c 0,0 -22.9,-8.5 8.5,-42.3 l 8.5,-8.5 25.4,27.2 0,-78 -67.7,0 18.6,23.8 -27.1,27.1 c 0,0 -10.5,13 8.5,33.8 15.5,17 25.3,16.9 25.3,16.9 l 0,0 z"
         class="st26"
         style="clip-rule:evenodd;fill:#3760e2;fill-rule:evenodd" /></g></g><g
     id="layer2"
     inkscape:label="new_grid"
     inkscape:groupmode="layer"
     display="none"
     style="display:none"><path
       id="rect3070"
       display="inline"
       d="m 108.468,24.499 359.064,0 c 6.608,0 11.969,5.36 11.969,11.977 l 0,503.048 c 0,6.615 -5.358,11.979 -11.969,11.979 l -359.064,0 c -6.61,0 -11.969,-5.362 -11.969,-11.979 l 0,-503.048 c 0,-6.614 5.358,-11.977 11.969,-11.977 z"
       inkscape:connector-curvature="0"
       style="display:inline;fill-opacity:0;stroke:#000000;stroke-width:0.99800003;stroke-miterlimit:4;stroke-dasharray:none" /><path
       id="rect3840"
       display="inline"
       d="m 36.476,96.499 503.047,0 c 6.613,0 11.978,5.356 11.978,11.969 l 0,359.063 c 0,6.609 -5.362,11.97 -11.978,11.97 l -503.047,0 c -6.615,0 -11.977,-5.358 -11.977,-11.97 l 0,-359.063 c 0,-6.61 5.362,-11.969 11.977,-11.969 z"
       inkscape:connector-curvature="0"
       style="display:inline;fill-opacity:0;stroke:#000000;stroke-width:0.99779999" /><path
       id="rect3842"
       inkscape:connector-curvature="0"
       display="inline"
       d="M 72.473,60 C 65.571,60 60,65.572 60,72.473 l 0,431.055 c 0,6.9 5.571,12.473 12.473,12.473 l 431.055,0 c 6.899,0 12.473,-5.57 12.473,-12.473 l 0,-431.055 C 516,65.572 510.429,60 503.527,60 L 72.473,60 Z m 0,0.998 431.055,0 c 6.363,0 11.475,5.106 11.475,11.475 l 0,431.055 c 0,6.365 -5.109,11.477 -11.475,11.477 l -431.055,0 c -6.366,0 -11.475,-5.109 -11.475,-11.477 l 0,-431.055 c 0,-6.366 5.109,-11.475 11.475,-11.475 z"
       style="display:inline" /><circle
       id="path3844"
       display="inline"
       stroke-miterlimit="10"
       cx="288"
       cy="288"
       r="263.49799"
       style="display:inline;fill-opacity:0;stroke:#000000;stroke-width:0.3118;stroke-miterlimit:10" /></g></svg>