<?xml version="1.0" encoding="UTF-8" standalone="no"?>
<svg
   xmlns:dc="http://purl.org/dc/elements/1.1/"
   xmlns:cc="http://creativecommons.org/ns#"
   xmlns:rdf="http://www.w3.org/1999/02/22-rdf-syntax-ns#"
   xmlns:svg="http://www.w3.org/2000/svg"
   xmlns="http://www.w3.org/2000/svg"
   xmlns:xlink="http://www.w3.org/1999/xlink"
   xml:space="preserve"
   enable-background="new 0 0 576 576"
   viewBox="0 0 576 576"
   height="576px"
   width="576px"
   y="0px"
   x="0px"
   id="svg2"
   version="1.1"><metadata
     id="metadata4246"><rdf:RDF><cc:Work
         rdf:about=""><dc:format>image/svg+xml</dc:format><dc:type
           rdf:resource="http://purl.org/dc/dcmitype/StillImage" /><dc:title></dc:title></cc:Work></rdf:RDF></metadata><defs
     id="defs4244"><clipPath
       id="SVGID_4_"><use
         height="100%"
         width="100%"
         y="0"
         x="0"
         style="overflow:visible"
         xlink:href="#SVGID_3_"
         overflow="visible"
         id="use4216" /></clipPath><clipPath
       id="clipPath4391"><use
         height="100%"
         width="100%"
         y="0"
         x="0"
         style="overflow:visible"
         xlink:href="#SVGID_3_"
         overflow="visible"
         id="use4393" /></clipPath></defs><g
     style="display:none"
     id="layer3"><g
       id="g4577"><g
         id="g4174"
         transform="matrix(0.92425927,0,0,0.92425927,58.292587,3.819338)"><defs
           id="defs4176"><rect
             id="SVGID_1_"
             x="3.5"
             y="34.127998"
             width="569.04901"
             height="518.37201" /></defs><clipPath
           id="SVGID_2_"><use
             height="100%"
             width="100%"
             y="0"
             x="0"
             style="overflow:visible"
             xlink:href="#SVGID_1_"
             overflow="visible"
             id="use4180" /></clipPath><path
           style="fill:#1e1e1c"
           clip-path="url(#SVGID_2_)"
           d="m 493.534,522.331 0,-428.116 c 0,0 0,-29.307 -29.308,-29.307 l -19.1,0 0,13.391 c 5.213,1.394 9.067,6.102 9.067,11.751 0,6.745 -5.467,12.211 -12.212,12.211 -6.744,0 -12.21,-5.466 -12.21,-12.211 0,-5.65 3.857,-10.357 9.065,-11.751 l 0,-13.392 -42.556,0 0,13.391 c 5.209,1.394 9.066,6.102 9.066,11.751 0,6.745 -5.466,12.211 -12.21,12.211 -6.745,0 -12.214,-5.466 -12.214,-12.211 0,-5.65 3.856,-10.357 9.068,-11.751 l 0,-13.391 -42.557,0 0,13.391 c 5.212,1.394 9.067,6.102 9.067,11.751 0,6.745 -5.468,12.211 -12.213,12.211 -6.74,0 -12.21,-5.466 -12.21,-12.211 0,-5.65 3.857,-10.357 9.066,-11.751 l 0,-13.391 -42.556,0 0,13.391 c 5.208,1.394 9.067,6.102 9.067,11.751 0,6.745 -5.468,12.211 -12.212,12.211 -6.745,0 -12.212,-5.466 -12.212,-12.211 0,-5.65 3.856,-10.357 9.066,-11.751 l 0,-13.391 -42.554,0 0,13.391 c 5.209,1.394 9.066,6.102 9.066,11.751 0,6.745 -5.468,12.211 -12.212,12.211 -6.743,0 -12.211,-5.466 -12.211,-12.211 0,-5.65 3.856,-10.357 9.067,-11.751 l 0,-13.391 -42.557,0 0,13.391 c 5.211,1.394 9.068,6.102 9.068,11.751 0,6.745 -5.468,12.211 -12.212,12.211 -6.744,0 -12.212,-5.466 -12.212,-12.211 0,-5.65 3.856,-10.357 9.066,-11.751 l 0,-13.391 -42.554,0 0,13.391 c 5.209,1.394 9.065,6.102 9.065,11.751 0,6.745 -5.467,12.211 -12.21,12.211 -6.744,0 -12.211,-5.466 -12.211,-12.211 0,-5.65 3.856,-10.357 9.067,-11.751 l 0,-13.391 -42.552,0 0,13.391 c 5.21,1.394 9.067,6.102 9.067,11.751 0,6.745 -5.468,12.211 -12.212,12.211 -6.745,0 -12.212,-5.466 -12.212,-12.211 0,-5.65 3.857,-10.357 9.068,-11.751 l 0,-13.391 -42.556,0 0,13.391 c 5.209,1.394 9.066,6.102 9.066,11.751 0,6.745 -5.467,12.211 -12.21,12.211 -6.745,0 -12.212,-5.466 -12.212,-12.211 0,-5.65 3.856,-10.357 9.067,-11.751 l 0,-13.391 -11.966,0 c 0,0 -29.305,0 -29.305,29.307 l 0,428.117 c 0,0 0,29.307 29.305,29.307 l 428.116,0 c 10e-4,0 29.308,0 29.308,-29.307"
           id="path4182" /><path
           style="fill:none;stroke:#1e1e1c"
           clip-path="url(#SVGID_2_)"
           d="m 493.534,522.331 0,-428.116 c 0,0 0,-29.307 -29.308,-29.307 l -19.1,0 0,13.391 c 5.213,1.394 9.067,6.102 9.067,11.751 0,6.745 -5.467,12.211 -12.212,12.211 -6.744,0 -12.21,-5.466 -12.21,-12.211 0,-5.65 3.857,-10.357 9.065,-11.751 l 0,-13.392 -42.556,0 0,13.391 c 5.209,1.394 9.066,6.102 9.066,11.751 0,6.745 -5.466,12.211 -12.21,12.211 -6.745,0 -12.214,-5.466 -12.214,-12.211 0,-5.65 3.856,-10.357 9.068,-11.751 l 0,-13.391 -42.557,0 0,13.391 c 5.212,1.394 9.067,6.102 9.067,11.751 0,6.745 -5.468,12.211 -12.213,12.211 -6.74,0 -12.21,-5.466 -12.21,-12.211 0,-5.65 3.857,-10.357 9.066,-11.751 l 0,-13.391 -42.556,0 0,13.391 c 5.208,1.394 9.067,6.102 9.067,11.751 0,6.745 -5.468,12.211 -12.212,12.211 -6.745,0 -12.212,-5.466 -12.212,-12.211 0,-5.65 3.856,-10.357 9.066,-11.751 l 0,-13.391 -42.554,0 0,13.391 c 5.209,1.394 9.066,6.102 9.066,11.751 0,6.745 -5.468,12.211 -12.212,12.211 -6.743,0 -12.211,-5.466 -12.211,-12.211 0,-5.65 3.856,-10.357 9.067,-11.751 l 0,-13.391 -42.557,0 0,13.391 c 5.211,1.394 9.068,6.102 9.068,11.751 0,6.745 -5.468,12.211 -12.212,12.211 -6.744,0 -12.212,-5.466 -12.212,-12.211 0,-5.65 3.856,-10.357 9.066,-11.751 l 0,-13.391 -42.554,0 0,13.391 c 5.209,1.394 9.065,6.102 9.065,11.751 0,6.745 -5.467,12.211 -12.21,12.211 -6.744,0 -12.211,-5.466 -12.211,-12.211 0,-5.65 3.856,-10.357 9.067,-11.751 l 0,-13.391 -42.552,0 0,13.391 c 5.21,1.394 9.067,6.102 9.067,11.751 0,6.745 -5.468,12.211 -12.212,12.211 -6.745,0 -12.212,-5.466 -12.212,-12.211 0,-5.65 3.857,-10.357 9.068,-11.751 l 0,-13.391 -42.556,0 0,13.391 c 5.209,1.394 9.066,6.102 9.066,11.751 0,6.745 -5.467,12.211 -12.21,12.211 -6.745,0 -12.212,-5.466 -12.212,-12.211 0,-5.65 3.856,-10.357 9.067,-11.751 l 0,-13.391 -11.966,0 c 0,0 -29.305,0 -29.305,29.307 l 0,428.117 c 0,0 0,29.307 29.305,29.307 l 428.116,0 c 10e-4,0 29.308,0 29.308,-29.307 z"
           id="path4184" /><path
           style="fill:#fff49d"
           clip-path="url(#SVGID_2_)"
           d="m 491.092,519.767 0,-428.116 c 0,0 0,-29.308 -29.307,-29.308 l -19.1,0 0,13.391 c 5.211,1.395 9.067,6.102 9.067,11.752 0,6.745 -5.469,12.21 -12.214,12.21 -6.744,0 -12.21,-5.465 -12.21,-12.21 0,-5.65 3.857,-10.358 9.067,-11.752 l 0,-13.391 -42.555,0 0,13.391 c 5.208,1.395 9.065,6.102 9.065,11.752 0,6.745 -5.466,12.21 -12.21,12.21 -6.745,0 -12.212,-5.465 -12.212,-12.21 0,-5.65 3.856,-10.358 9.068,-11.752 l 0,-13.391 -42.558,0 0,13.391 c 5.211,1.395 9.067,6.102 9.067,11.752 0,6.745 -5.468,12.21 -12.212,12.21 -6.743,0 -12.211,-5.465 -12.211,-12.21 0,-5.65 3.855,-10.358 9.066,-11.752 l 0,-13.391 -42.554,0 0,13.391 c 5.207,1.395 9.065,6.102 9.065,11.752 0,6.745 -5.469,12.21 -12.212,12.21 -6.744,0 -12.212,-5.465 -12.212,-12.21 0,-5.65 3.857,-10.358 9.067,-11.752 l 0,-13.391 -42.555,0 0,13.391 c 5.209,1.395 9.065,6.102 9.065,11.752 0,6.745 -5.467,12.21 -12.209,12.21 -6.744,0 -12.212,-5.465 -12.212,-12.21 0,-5.65 3.856,-10.358 9.067,-11.752 l 0,-13.391 -42.557,0 0,13.391 c 5.211,1.395 9.066,6.102 9.066,11.752 0,6.745 -5.467,12.21 -12.211,12.21 -6.744,0 -12.212,-5.465 -12.212,-12.21 0,-5.65 3.856,-10.358 9.068,-11.752 l 0,-13.391 -42.556,0 0,13.391 c 5.209,1.395 9.065,6.102 9.065,11.752 0,6.745 -5.468,12.21 -12.21,12.21 -6.745,0 -12.213,-5.465 -12.213,-12.21 0,-5.65 3.857,-10.358 9.068,-11.752 l 0,-13.391 -42.558,0 0,13.391 c 5.211,1.395 9.068,6.102 9.068,11.752 0,6.745 -5.467,12.21 -12.212,12.21 -6.745,0 -12.212,-5.465 -12.212,-12.21 0,-5.65 3.856,-10.358 9.067,-11.752 l 0,-13.391 -42.551,0 0,13.391 c 5.209,1.395 9.065,6.102 9.065,11.752 0,6.745 -5.467,12.21 -12.21,12.21 -6.744,0 -12.212,-5.465 -12.212,-12.21 0,-5.65 3.857,-10.358 9.067,-11.752 l 0,-13.391 -11.965,0 c 0,0 -29.305,0 -29.305,29.308 l 0,428.116 c 0,0 0,29.308 29.305,29.308 l 428.117,0 c 0,-0.001 29.307,-0.001 29.307,-29.308"
           id="path4186" /><path
           style="fill:none;stroke:#1e1e1c"
           clip-path="url(#SVGID_2_)"
           d="m 491.092,519.767 0,-428.116 c 0,0 0,-29.308 -29.307,-29.308 l -19.1,0 0,13.391 c 5.211,1.395 9.067,6.102 9.067,11.752 0,6.745 -5.469,12.21 -12.214,12.21 -6.744,0 -12.21,-5.465 -12.21,-12.21 0,-5.65 3.857,-10.358 9.067,-11.752 l 0,-13.391 -42.555,0 0,13.391 c 5.208,1.395 9.065,6.102 9.065,11.752 0,6.745 -5.466,12.21 -12.21,12.21 -6.745,0 -12.212,-5.465 -12.212,-12.21 0,-5.65 3.856,-10.358 9.068,-11.752 l 0,-13.391 -42.558,0 0,13.391 c 5.211,1.395 9.067,6.102 9.067,11.752 0,6.745 -5.468,12.21 -12.212,12.21 -6.743,0 -12.211,-5.465 -12.211,-12.21 0,-5.65 3.855,-10.358 9.066,-11.752 l 0,-13.391 -42.554,0 0,13.391 c 5.207,1.395 9.065,6.102 9.065,11.752 0,6.745 -5.469,12.21 -12.212,12.21 -6.744,0 -12.212,-5.465 -12.212,-12.21 0,-5.65 3.857,-10.358 9.067,-11.752 l 0,-13.391 -42.555,0 0,13.391 c 5.209,1.395 9.065,6.102 9.065,11.752 0,6.745 -5.467,12.21 -12.209,12.21 -6.744,0 -12.212,-5.465 -12.212,-12.21 0,-5.65 3.856,-10.358 9.067,-11.752 l 0,-13.391 -42.557,0 0,13.391 c 5.211,1.395 9.066,6.102 9.066,11.752 0,6.745 -5.467,12.21 -12.211,12.21 -6.744,0 -12.212,-5.465 -12.212,-12.21 0,-5.65 3.856,-10.358 9.068,-11.752 l 0,-13.391 -42.556,0 0,13.391 c 5.209,1.395 9.065,6.102 9.065,11.752 0,6.745 -5.468,12.21 -12.21,12.21 -6.745,0 -12.213,-5.465 -12.213,-12.21 0,-5.65 3.857,-10.358 9.068,-11.752 l 0,-13.391 -42.558,0 0,13.391 c 5.211,1.395 9.068,6.102 9.068,11.752 0,6.745 -5.467,12.21 -12.212,12.21 -6.745,0 -12.212,-5.465 -12.212,-12.21 0,-5.65 3.856,-10.358 9.067,-11.752 l 0,-13.391 -42.551,0 0,13.391 c 5.209,1.395 9.065,6.102 9.065,11.752 0,6.745 -5.467,12.21 -12.21,12.21 -6.744,0 -12.212,-5.465 -12.212,-12.21 0,-5.65 3.857,-10.358 9.067,-11.752 l 0,-13.391 -11.965,0 c 0,0 -29.305,0 -29.305,29.308 l 0,428.116 c 0,0 0,29.308 29.305,29.308 l 428.117,0 c 0,-0.001 29.307,-0.001 29.307,-29.308 z"
           id="path4188" /></g><path
         style="fill:#1e1e1c"
         d="m 326.34728,242.43297 -19.78746,89.93874 -74.94819,0 20.38639,-89.93874 74.34926,0 z m 114.5222,-38.3734 -63.55762,0 19.78562,-89.3389 -41.97061,0 -20.38731,89.3389 -74.34834,0 19.78561,-89.3389 -42.57045,0 -20.38731,89.3389 -63.55669,0 -8.39505,38.3734 63.55854,0 -19.78747,89.93874 -63.55576,0 -8.39413,37.77448 63.55577,0 -19.78562,89.93875 42.57046,0 19.78654,-89.93875 74.95003,0 -19.78654,89.93875 41.97061,0 19.78747,-89.93875 64.15653,0 8.39413,-37.77448 -64.15654,0 20.38547,-89.93874 63.55668,0 8.39598,-38.3734 z"
         id="path4192" /><line
         style="fill:none;stroke:#1e1e1c;stroke-width:0.92425925"
         x1="93.474609"
         y1="194.76614"
         x2="480.60062"
         y2="194.76614"
         id="line4194" /><line
         style="fill:none;stroke:#1e1e1c;stroke-width:0.92425925"
         x1="93.474609"
         y1="262.72787"
         x2="480.60062"
         y2="262.72787"
         id="line4196" /><line
         style="fill:none;stroke:#1e1e1c;stroke-width:0.92425925"
         x1="93.474609"
         y1="330.69141"
         x2="480.60062"
         y2="330.69141"
         id="line4198" /><line
         style="fill:none;stroke:#1e1e1c;stroke-width:0.92425925"
         x1="93.474609"
         y1="398.65219"
         x2="480.60062"
         y2="398.65219"
         id="line4200" /><line
         style="fill:none;stroke:#1e1e1c;stroke-width:0.92425925"
         x1="93.474609"
         y1="466.61389"
         x2="480.60062"
         y2="466.61389"
         id="line4202" /><line
         style="fill:none;stroke:#1e1e1c;stroke-width:0.92425925"
         x1="93.474609"
         y1="126.80351"
         x2="480.60062"
         y2="126.80351"
         id="line4204" /></g></g><g
     style="display:inline"
     id="layer1"><polygon
       transform="translate(4.788662,29.46426)"
       style="fill:#ada870;fill-opacity:0.4554"
       points="230.922,456.752 230.922,456.752 330.136,429.934 329.24,428.898 550,326.828 550,227.344 270.045,360.7 269.15,359.667 136.5,480.5 136.5,480.5 "
       id="polygon4190-3" /><g
       id="g5069"><polygon
         style="fill:#ffffff"
         points="351.563,389.625 267.616,325.713 189.576,514.073 "
         id="polygon4206"
         transform="matrix(0.92425927,0,0,0.92425927,-31.018223,32.532836)" /><polygon
         style="fill:none;stroke:#1e1e1c;stroke-width:1.79999995"
         points="351.563,389.625 267.616,325.713 189.576,514.073 "
         id="polygon4208"
         transform="matrix(0.92425927,0,0,0.92425927,-31.018223,32.532836)" /><g
         id="g4210"
         transform="matrix(0.92425927,0,0,0.92425927,-31.018223,32.532836)"><defs
           id="defs4212"><rect
             id="SVGID_3_"
             x="3.5"
             y="34.127998"
             width="569.04901"
             height="518.37201" /></defs><clipPath
           id="clipPath4402"><use
             height="100%"
             width="100%"
             y="0"
             x="0"
             style="overflow:visible"
             xlink:href="#SVGID_3_"
             overflow="visible"
             id="use4404" /></clipPath><path
           style="fill:#dc9bc0"
           clip-path="url(#SVGID_4_)"
           d="m 437.585,106.752 c 0,0 -16.055,20.926 4.87,36.982 l 39.39,30.226 c 0,0 20.927,16.058 36.984,-4.868 l 46.282,-60.317 c 0,0 16.057,-20.926 -4.87,-36.982 l -39.39,-30.226 c 0,0 -20.924,-16.058 -36.984,4.867 l -46.282,60.318 z"
           id="path4218" /><path
           style="fill:none;stroke:#1e1e1c;stroke-width:1.79999995"
           clip-path="url(#SVGID_4_)"
           d="m 437.585,106.752 c 0,0 -16.055,20.926 4.87,36.982 l 39.39,30.226 c 0,0 20.927,16.058 36.984,-4.868 l 46.282,-60.317 c 0,0 16.057,-20.926 -4.87,-36.982 l -39.39,-30.226 c 0,0 -20.924,-16.058 -36.984,4.867 l -46.282,60.318 z"
           id="path4220" /></g><rect
         style="fill:#526e7f"
         x="-470.75757"
         y="-133.54153"
         transform="matrix(-0.793352,-0.60876317,0.60876317,-0.793352,0,0)"
         width="94.654495"
         height="305.13586"
         id="rect4222" /><rect
         style="fill:none;stroke:#1e1e1c;stroke-width:1.66376734"
         x="-470.75757"
         y="-133.54153"
         transform="matrix(-0.793352,-0.60876317,0.60876317,-0.793352,0,0)"
         width="94.654495"
         height="305.13586"
         id="rect4224" /><rect
         style="fill:#83afcd"
         x="-455.34811"
         y="-131.67839"
         transform="matrix(-0.793352,-0.60876317,0.60876317,-0.793352,0,0)"
         width="67.945488"
         height="303.27151"
         id="rect4226" /><rect
         style="fill:#c1d6e7"
         x="-421.97479"
         y="-131.72311"
         transform="matrix(-0.79340029,-0.60870023,0.60870023,-0.79340029,0,0)"
         width="26.727718"
         height="303.25214"
         id="rect4228" /><polygon
         style="fill:#626261"
         points="270.595,451.829 228.687,419.673 189.575,514.076 "
         id="polygon4230"
         transform="matrix(0.92425927,0,0,0.92425927,-31.018223,32.532836)" /><polygon
         style="fill:none;stroke:#1e1e1c;stroke-width:1.79999995"
         points="270.595,451.829 228.687,419.673 189.575,514.076 "
         id="polygon4232"
         transform="matrix(0.92425927,0,0,0.92425927,-31.018223,32.532836)" /><polygon
         style="fill:#ffffff"
         points="245.896,423.55 240.4,418.665 195.219,506.585 "
         id="polygon4234"
         transform="matrix(0.92425927,0,0,0.92425927,-31.018223,32.532836)" /><rect
         style="fill:#848484"
         x="-479.31293"
         y="98.909431"
         transform="matrix(-0.79331494,-0.60881146,0.60881146,-0.79331494,0,0)"
         width="109.27312"
         height="72.706413"
         id="rect4236" /><rect
         style="fill:none;stroke:#1e1e1c;stroke-width:1.66363525"
         x="-479.31293"
         y="98.909431"
         transform="matrix(-0.79331494,-0.60881146,0.60881146,-0.79331494,0,0)"
         width="109.27312"
         height="72.706413"
         id="rect4238" /><rect
         style="fill:#c4c4c4"
         x="-452.57495"
         y="101.70558"
         transform="matrix(-0.793352,-0.60876317,0.60876317,-0.793352,0,0)"
         width="75.495293"
         height="67.768021"
         id="rect4240" /><rect
         style="fill:#ffffff"
         x="-414"
         y="101.71606"
         transform="matrix(-0.79331494,-0.60881146,0.60881146,-0.79331494,0,0)"
         width="29.340982"
         height="67.764488"
         id="rect4242" /></g></g><g
     style="display:none"
     id="layer4"><text
       transform="scale(1.0135171,0.98666318)"
       id="text4164"
       y="512.77057"
       x="304.91876"
       style="font-style:normal;font-weight:normal;font-size:319.33584595px;line-height:125%;font-family:sans-serif;letter-spacing:0px;word-spacing:0px;fill:#ff0100;fill-opacity:1;stroke:none;stroke-width:1px;stroke-linecap:butt;stroke-linejoin:miter;stroke-opacity:1"
       xml:space="preserve"><tspan
         y="512.77057"
         x="304.91876"
         id="tspan4166">α</tspan></text>
</g><g
     style="display:inline"
     id="layer5"><g
       style="fill:#00d91b;fill-opacity:1"
       id="g4973"
       class="st5"
       transform="translate(63.15,58.4)"><path
         style="fill:#00d91b;fill-opacity:1"
         id="path4975"
         d="m 340.1,411.2 0,83.4 -23.1,0 0,-217.4 c 0,-17.3 2,-30.9 5.9,-40.7 3.9,-9.8 10.6,-17.9 20.2,-24.3 9.5,-6.4 20.1,-9.6 31.8,-9.6 17.3,0 30.3,5.9 39.2,17.8 8.9,11.8 13.3,24.8 13.3,38.8 0,13.7 -3.6,24.8 -10.8,33.2 -7.2,8.4 -15.4,13.6 -24.7,15.5 14.9,1.7 26.5,8.2 34.6,19.2 8.1,11.1 12.2,24.7 12.2,40.9 0,17.4 -4.8,33 -14.4,46.8 -9.6,13.8 -23.4,20.7 -41.5,20.7 -18.5,0.1 -32.7,-8 -42.7,-24.3 z m 20.5,-112.1 c 15.8,0 27.3,-3.3 34.5,-9.8 7.2,-6.6 10.8,-16 10.8,-28.5 0,-10 -3.1,-18.5 -9.2,-25.2 -6.1,-6.8 -13.8,-10.2 -23,-10.2 -8,0 -14.9,2.5 -20.8,7.5 -5.9,5 -9.5,10.6 -10.8,16.8 -1.3,6.2 -2,16.9 -2,32.3 l 0,62 c 0,17.6 1,30.6 3.1,38.9 2.1,8.3 6.5,15.8 13.3,22.5 6.8,6.7 14.6,10 23.4,10 10.7,0 19.2,-4.4 25.4,-13.2 6.2,-8.8 9.3,-19.6 9.3,-32.5 0,-10.7 -2.3,-20.2 -6.9,-28.7 -4.6,-8.5 -10.3,-14.2 -17,-17.2 -6.7,-3 -15.7,-4.5 -26.9,-4.5 l -3.3,0 0,-20.2 0.1,0 z"
         class="st6" /></g></g><g
     style="display:none"
     id="layer7"><g
       id="g4239"
       style="display:inline"
       transform="matrix(1.0000019,0,0,0.99997525,71.999996,-334.98577)"><rect
         style="clip-rule:evenodd;fill:#ffffff;fill-rule:evenodd;stroke:#a0a0a0;stroke-width:12;stroke-miterlimit:10"
         x="8"
         y="413.10001"
         class="st25"
         width="155.89999"
         height="155.89999"
         id="rect102" /><path
         style="clip-rule:evenodd;fill:#3760e2;fill-rule:evenodd"
         class="st26"
         d="m 84.7,546.1 c 0,0 -22.9,-8.5 8.5,-42.3 l 8.5,-8.5 25.4,27.2 0,-78 -67.7,0 18.6,23.8 -27.1,27.1 c 0,0 -10.5,13 8.5,33.8 15.5,17 25.3,16.9 25.3,16.9 l 0,0 z"
         id="path104" /></g></g><g
     style="display:none"
     display="none"
     id="layer2"><path
       style="display:inline;fill-opacity:0;stroke:#000000;stroke-width:0.99800003;stroke-miterlimit:4;stroke-dasharray:none"
       d="m 108.468,24.499 359.064,0 c 6.608,0 11.969,5.36 11.969,11.977 l 0,503.048 c 0,6.615 -5.358,11.979 -11.969,11.979 l -359.064,0 c -6.61,0 -11.969,-5.362 -11.969,-11.979 l 0,-503.048 c 0,-6.614 5.358,-11.977 11.969,-11.977 z"
       display="inline"
       id="rect3070" /><path
       style="display:inline;fill-opacity:0;stroke:#000000;stroke-width:0.99779999"
       d="m 36.476,96.499 503.047,0 c 6.613,0 11.978,5.356 11.978,11.969 l 0,359.063 c 0,6.609 -5.362,11.97 -11.978,11.97 l -503.047,0 c -6.615,0 -11.977,-5.358 -11.977,-11.97 l 0,-359.063 c 0,-6.61 5.362,-11.969 11.977,-11.969 z"
       display="inline"
       id="rect3840" /><path
       style="display:inline"
       d="M 72.473,60 C 65.571,60 60,65.572 60,72.473 l 0,431.055 c 0,6.9 5.571,12.473 12.473,12.473 l 431.055,0 c 6.899,0 12.473,-5.57 12.473,-12.473 l 0,-431.055 C 516,65.572 510.429,60 503.527,60 L 72.473,60 Z m 0,0.998 431.055,0 c 6.363,0 11.475,5.106 11.475,11.475 l 0,431.055 c 0,6.365 -5.109,11.477 -11.475,11.477 l -431.055,0 c -6.366,0 -11.475,-5.109 -11.475,-11.477 l 0,-431.055 c 0,-6.366 5.109,-11.475 11.475,-11.475 z"
       display="inline"
       id="rect3842" /><circle
       style="display:inline;fill-opacity:0;stroke:#000000;stroke-width:0.3118;stroke-miterlimit:10"
       r="263.49799"
       cy="288"
       cx="288"
       stroke-miterlimit="10"
       display="inline"
       id="path3844" /></g></svg>